<?xml version="1.0" standalone="no"?>
<!DOCTYPE svg PUBLIC "-//W3C//DTD SVG 20010904//EN"
 "http://www.w3.org/TR/2001/REC-SVG-20010904/DTD/svg10.dtd">
<svg version="1.0" xmlns="http://www.w3.org/2000/svg"
 width="1000.000000pt" height="1000.000000pt" viewBox="0 0 1000.000000 1000.000000"
 preserveAspectRatio="xMidYMid meet">
<metadata>
Created by potrace 1.14, written by Peter Selinger 2001-2017
</metadata>
<g transform="translate(0.000000,1000.000000) scale(0.100000,-0.100000)"
fill="#000000" stroke="none">
<path d="M4567 9639 c-15 -4 -62 -25 -105 -47 -42 -22 -102 -47 -132 -57 -113
-36 -262 -128 -304 -187 -15 -21 -34 -38 -42 -38 -8 0 -12 -5 -9 -10 3 -6 0
-12 -7 -15 -8 -3 -25 -23 -38 -45 -14 -22 -28 -40 -32 -40 -5 0 -8 -6 -8 -14
0 -15 -86 -96 -101 -96 -5 0 -9 -7 -9 -15 0 -8 -4 -15 -9 -15 -5 0 -17 -26
-26 -57 -9 -32 -25 -71 -35 -88 -10 -16 -21 -41 -25 -55 -11 -34 -57 -90 -74
-90 -8 0 -11 -3 -8 -7 4 -3 -1 -12 -11 -19 -15 -12 -14 -12 7 -7 22 6 23 4 17
-23 -4 -16 -14 -36 -22 -45 -17 -19 -18 -41 -3 -56 18 -18 7 -68 -16 -71 -25
-4 -52 -62 -29 -62 8 0 19 -12 24 -26 13 -34 13 -39 -5 -24 -12 10 -15 9 -15
-6 -1 -18 -1 -18 -15 0 -13 17 -15 18 -15 3 0 -9 -7 -17 -15 -17 -8 0 -15 -9
-15 -20 0 -11 -4 -20 -10 -20 -16 0 -12 -19 14 -56 24 -35 25 -74 2 -74 -6 0
-4 -5 4 -10 13 -9 12 -12 -5 -22 -10 -6 -30 -22 -43 -35 -12 -13 -30 -23 -38
-23 -8 0 -12 -4 -9 -10 3 -5 -3 -10 -13 -10 -21 0 -32 -18 -32 -55 0 -13 -4
-25 -10 -27 -12 -4 -14 -53 -3 -98 5 -19 9 -77 8 -127 0 -51 4 -94 8 -96 14
-4 -4 -57 -19 -57 -8 0 -14 -4 -14 -9 0 -5 -26 -36 -58 -68 -32 -32 -64 -75
-72 -93 -8 -19 -20 -41 -27 -48 -7 -7 -13 -21 -12 -30 0 -14 2 -15 7 -2 14 32
61 96 85 119 25 23 26 23 24 3 0 -12 -3 -19 -6 -17 -6 7 -26 -34 -40 -85 -11
-43 -12 -74 0 -95 3 -5 5 -37 4 -70 -1 -40 5 -76 17 -106 11 -26 19 -53 18
-60 -5 -31 1 -50 13 -46 13 4 47 -44 47 -67 0 -8 7 -16 15 -20 8 -3 12 -12 9
-21 -3 -8 -2 -15 3 -15 15 0 32 -45 23 -60 -5 -8 -7 -17 -4 -21 2 -4 0 -10 -6
-14 -5 -3 -10 -12 -10 -20 0 -20 -52 -75 -71 -75 -9 0 -22 7 -29 15 -16 20
-41 20 -34 0 4 -8 10 -13 14 -10 4 3 11 -2 14 -11 5 -13 15 -15 45 -11 30 4
38 2 35 -8 -5 -12 -58 -40 -76 -40 -4 0 -13 -6 -19 -12 -16 -16 -6 -16 63 -1
29 6 65 20 79 30 26 17 27 17 32 -4 7 -25 -10 -61 -24 -53 -5 4 -9 1 -9 -4 0
-6 -9 -11 -21 -11 -11 0 -18 -4 -15 -9 6 -9 -36 -31 -60 -31 -8 0 -17 -7 -20
-15 -4 -8 -10 -12 -15 -9 -5 3 -12 -1 -15 -9 -2 -7 -10 -14 -17 -14 -7 0 -28
-7 -47 -16 -19 -8 -69 -27 -110 -41 -100 -33 -147 -54 -155 -66 -3 -5 -16 -10
-29 -10 -22 0 -67 -42 -74 -70 -8 -28 -10 -215 -3 -270 4 -33 2 -73 -6 -100
-6 -25 -34 -125 -62 -222 -27 -98 -51 -206 -54 -240 -3 -35 -14 -85 -25 -113
-10 -27 -22 -66 -26 -85 -3 -19 -8 -46 -11 -60 -3 -14 -12 -56 -20 -95 -7 -38
-27 -101 -43 -140 -24 -60 -70 -220 -86 -305 -3 -14 -12 -59 -20 -100 -18 -92
-24 -139 -32 -260 -5 -73 -11 -104 -30 -135 -68 -117 -65 -106 -69 -268 -3
-146 -2 -158 31 -292 19 -77 61 -219 93 -315 33 -96 71 -219 86 -274 49 -180
121 -341 195 -435 20 -25 65 -100 100 -166 69 -131 85 -157 170 -285 31 -47
65 -108 75 -135 25 -67 67 -128 116 -167 39 -31 40 -33 34 -83 -6 -59 -12
-140 -21 -285 -3 -57 -7 -107 -9 -110 -2 -3 -6 -41 -10 -85 -4 -44 -9 -93 -10
-108 -2 -16 -7 -79 -10 -140 -4 -62 -8 -119 -10 -127 -5 -19 -15 -126 -20
-215 -2 -38 -6 -106 -10 -150 -3 -44 -8 -105 -10 -135 -3 -30 -7 -142 -10
-247 l-6 -193 1680 0 1681 0 1 23 c4 90 -8 432 -19 567 -5 58 -8 176 -7 263 1
87 -2 160 -7 163 -5 3 -6 41 -2 86 8 102 9 306 1 468 -4 69 -9 170 -12 225 -2
55 -9 125 -14 155 -5 30 -17 118 -26 195 -9 77 -23 183 -32 235 -8 52 -18 120
-23 150 -4 30 -11 62 -14 70 -3 8 -7 38 -9 67 -4 60 -16 78 -62 94 -19 7 -38
22 -43 33 -12 27 -32 86 -37 109 -2 9 -7 22 -10 28 -4 5 -10 35 -14 65 -6 43
-5 54 7 54 7 0 16 -9 19 -19 3 -11 12 -22 20 -25 8 -3 11 -11 7 -18 -5 -8 -2
-9 10 -5 13 5 30 -4 59 -34 40 -40 117 -87 117 -72 0 5 5 0 11 -9 5 -10 17
-18 25 -18 9 0 12 -5 8 -12 -4 -6 -3 -8 3 -5 6 4 18 0 28 -7 15 -11 27 -11 67
-1 26 7 48 11 48 8 0 -3 6 0 13 6 8 6 22 12 33 14 10 2 27 7 36 11 9 4 23 8
31 10 8 1 26 9 40 19 15 9 30 17 34 17 4 1 26 19 48 40 22 22 48 43 57 46 10
3 18 10 18 15 0 6 5 7 12 3 6 -4 8 -3 5 4 -7 9 21 37 72 72 11 8 21 20 21 28
0 7 5 10 12 6 6 -4 8 -3 4 4 -3 6 -1 23 4 38 6 15 13 48 16 73 3 25 7 53 9 61
2 8 7 56 10 105 5 66 11 93 23 103 9 6 12 12 6 12 -5 1 2 7 16 15 14 8 21 14
16 15 -5 0 5 13 22 28 18 16 29 32 25 35 -3 4 2 7 12 7 10 0 15 3 12 6 -3 4 5
15 19 26 38 31 51 67 53 153 1 43 5 84 9 90 4 5 7 16 9 24 1 8 5 17 10 20 4 3
9 13 11 21 1 8 7 24 12 35 16 35 40 145 40 184 0 23 -8 48 -20 64 -15 19 -22
49 -29 126 -4 56 -11 105 -15 109 -4 4 -51 8 -104 8 -132 2 -132 2 -132 20 0
53 106 80 193 50 l37 -14 1 52 c0 28 2 78 5 110 6 80 -8 150 -67 329 -28 84
-52 157 -53 162 -1 6 -4 15 -7 20 -5 8 -30 77 -34 95 -1 3 -7 19 -14 35 -6 17
-24 62 -38 100 -14 39 -29 71 -33 73 -4 1 0 41 8 89 18 98 14 106 -59 118 -25
4 -40 13 -44 26 -4 10 -13 19 -21 19 -19 0 -18 11 10 80 21 51 22 60 9 60 -9
0 -13 -3 -10 -7 8 -7 -11 -33 -24 -33 -13 0 -60 109 -64 145 -1 18 -8 30 -16
30 -8 0 -15 10 -17 23 -3 17 -8 21 -22 17 -40 -13 -84 5 -103 41 -9 20 -15 39
-13 43 14 23 20 109 10 157 -3 18 -1 41 5 53 7 11 8 21 2 21 -5 0 -12 15 -15
34 -4 19 -13 39 -21 46 -8 7 -13 16 -10 20 15 25 -130 163 -185 177 -28 7 -50
26 -151 128 -67 68 -100 119 -105 160 -14 138 -15 175 -5 175 6 0 11 5 11 12
0 9 -3 9 -12 0 -14 -14 -32 -16 -23 -3 3 5 -1 15 -8 23 -7 7 -12 22 -12 33 0
11 -3 25 -8 31 -4 7 -6 28 -4 49 3 22 0 38 -7 41 -6 2 -12 17 -13 32 -1 15 -4
36 -5 47 -4 25 27 32 48 10 12 -12 19 -13 30 -4 11 9 22 3 53 -32 32 -36 37
-47 29 -64 -10 -19 -9 -19 7 -3 17 16 20 15 51 -19 32 -34 51 -79 39 -91 -6
-6 -23 -8 -96 -11 -14 -1 -34 -8 -45 -16 -18 -14 -17 -14 8 -5 16 5 53 10 83
11 30 1 59 7 64 13 17 20 5 77 -23 106 -14 16 -26 33 -26 39 0 6 -4 11 -10 11
-5 0 -10 5 -10 11 0 5 -13 24 -30 42 -78 83 -95 188 -48 297 10 24 14 66 14
135 -1 91 -4 104 -29 142 -15 24 -27 46 -27 51 0 5 -18 26 -40 48 -22 21 -40
45 -40 52 0 6 -5 12 -11 12 -5 0 -8 4 -4 10 3 5 -8 16 -25 25 -16 8 -30 20
-30 26 0 6 -4 7 -10 4 -9 -6 -15 8 -11 29 1 5 -5 16 -14 26 -14 15 -17 57 -14
160 0 8 -2 26 -5 40 -3 14 2 41 14 65 28 60 35 109 16 124 -12 10 -17 9 -26
-8 -14 -26 -57 -49 -93 -49 -31 1 -92 51 -82 68 3 5 1 10 -6 10 -7 0 -9 8 -4
23 4 12 6 32 6 44 0 12 6 23 15 25 11 2 4 14 -25 45 -23 23 -41 48 -42 55 0 7
-2 26 -4 43 -2 16 1 32 6 36 7 4 5 11 -5 20 -64 53 -111 126 -122 186 -3 13
-11 31 -20 41 -39 44 -64 81 -64 93 0 8 -16 29 -35 48 -19 19 -32 38 -29 43 3
4 -1 8 -8 8 -7 0 -40 27 -72 60 -43 43 -71 63 -100 71 -23 5 -72 19 -111 31
-115 35 -130 38 -162 26 -16 -5 -25 -3 -32 10 -6 9 -11 13 -11 9 0 -5 -21 3
-46 17 -51 29 -115 34 -136 12 -11 -12 -19 -11 -50 5 -21 11 -38 17 -38 13 0
-4 -6 -2 -12 3 -15 12 -82 13 -121 2z m1445 -1690 c26 -28 48 -60 49 -72 1
-12 3 -41 5 -65 5 -53 -15 -65 -48 -30 -13 13 -31 22 -40 20 -9 -2 -27 2 -38
8 -21 11 -22 27 -5 95 1 6 6 29 10 53 4 23 10 42 13 42 3 0 27 -23 54 -51z
m-2523 -710 c1 -29 6 -58 12 -65 6 -8 5 -13 -4 -17 -9 -3 -12 -16 -9 -35 2
-16 0 -32 -5 -35 -5 -3 -6 -31 -2 -64 12 -94 11 -135 -3 -131 -7 3 -14 13 -14
24 -4 49 -26 140 -39 161 -9 13 -13 28 -10 32 3 5 0 15 -7 23 -7 7 -13 32 -13
54 0 36 6 47 39 77 22 20 42 34 46 32 4 -2 8 -28 9 -56z m-223 -3036 c0 -10 4
-45 8 -78 5 -33 10 -73 11 -90 2 -16 11 -77 20 -134 9 -57 13 -106 10 -109 -3
-3 -12 4 -21 16 -15 21 -46 54 -76 77 -7 6 -32 22 -56 35 -23 13 -41 29 -38
36 2 6 1 15 -4 20 -16 16 -19 62 -5 81 8 10 15 14 15 10 0 -9 69 73 105 124
23 33 31 36 31 12z"/>
<path d="M3135 7309 c-4 -6 -5 -12 -2 -15 2 -3 7 2 10 11 7 17 1 20 -8 4z"/>
<path d="M3121 7244 c0 -11 3 -14 6 -6 3 7 2 16 -1 19 -3 4 -6 -2 -5 -13z"/>
<path d="M3180 6639 c0 -13 4 -31 10 -39 6 -10 8 -5 6 18 -3 38 -16 56 -16 21z"/>
<path d="M3213 6595 c0 -8 4 -15 9 -15 4 0 8 7 8 15 0 8 -4 15 -8 15 -5 0 -9
-7 -9 -15z"/>
<path d="M6678 6373 c7 -3 16 -2 19 1 4 3 -2 6 -13 5 -11 0 -14 -3 -6 -6z"/>
</g>
</svg>
